<?xml version="1.0" encoding="utf-8"?>
<!-- Generator: Adobe Illustrator 23.0.3, SVG Export Plug-In . SVG Version: 6.00 Build 0)  -->
<svg version="1.1" id="Layer_1" xmlns="http://www.w3.org/2000/svg" xmlns:xlink="http://www.w3.org/1999/xlink" x="0px" y="0px"
	 viewBox="0 0 4000 4000" style="enable-background:new 0 0 4000 4000;" xml:space="preserve">
<style type="text/css">
	.st0{opacity:0.2;}
	.st1{fill:#000072;}
	.st2{fill:#FF8928;}
	.st3{fill:#FFFFFF;}
	.st4{fill:#FF1B40;}
	.st5{opacity:0.6;}
	.st6{fill:none;}
	.st7{fill:#B199C5;}
</style>
<g>
	<g>
		<g class="st0">
			<ellipse class="st1" cx="2050.7" cy="3324.6" rx="1087.2" ry="135.2"/>
		</g>
		<g>
			<path class="st2" d="M2534.1,3306.4l25.1,50.2l-243.5-40.1c-98.8,23.4-185.8,20.1-185.8,20.1c14.5-130.6,163.3-153.4,163.3-153.4
				s-4.3-106.3-79.1-225.7l150-60.5c8.5,43.4,15.7,81.6,21.7,114.4c17.4,94.8,24.7,144.4,24.7,144.4c56-4,99.5,8.1,133,27.3
				c83,47.5,105,138.7,105,138.7L2534.1,3306.4z"/>
		</g>
		<g>
			<path class="st2" d="M2534.1,3306.4c0,0-64-123-192.1-76.6"/>
		</g>
		<g class="st0">
			<path class="st1" d="M2534.1,3306.4l25.1,50.2l-243.5-40.1c-98.8,23.4-185.8,20.1-185.8,20.1c14.5-130.6,163.3-153.4,163.3-153.4
				s-4.3-106.3-79.1-225.7l150-60.5c8.5,43.4,15.7,81.6,21.7,114.4c-10.5,6.1-22,12.6-32.7,18.4c-22.2,12-33.6,37.5-27.1,61.9
				c8.8,33.4,14.6,67.6,17.1,102c-68.9-4.5-139.2,27.1-181.7,81.5c62.6-6.2,125.9-12.3,188.1-3.2c21.7,3.2,44.1,8.1,65.1,2.2
				c21.1-5.9,39.8-27.5,33.3-48.5c19.1,31.3,73.4,24.1,89.9-8.6c5.4-10.7,7-22.5,5.7-34.2c83,47.5,105,138.7,105,138.7
				L2534.1,3306.4z"/>
		</g>
		<g>
			<path class="st2" d="M1545.5,3221c0,0,108,25.1,123,115.5c0,0-79.1,20-185.8-20.1l-243.5,40.1l25.1-50.2l-130.5,17.6
				c0,0,39.8-91.7,138.2-127.4c35.8-12.9,79.4-18.5,131.7-9.4c0,0,44.6-52.8,92.1-146.2c16.8-33,34-71.1,49.7-113.6l150,60.5
				C1584.4,3088,1545.5,3221,1545.5,3221z"/>
		</g>
		<g class="st0">
			<path class="st1" d="M1545.5,3221c0,0,108,25.1,123,115.5c0,0-79.1,20-185.8-20.1l-243.5,40.1l25.1-50.2l-130.5,17.6
				c0,0,39.8-91.7,138.2-127.4c-3.3,3.8-6.6,7.8-9.6,11.8c-6.3,8.3-12.2,17.8-11.6,28.1c0.9,14.4,14.9,25.2,29.2,27.4
				c14.2,2.2,28.6-2,42.4-6.3c30.5,1.7,61,3.5,91.6,5.2c63.8,3.6,127.9,7.3,190.2,21.3c-17.9-43.9-75.3-66.7-118.3-46.9
				c-5.9-36.1,21.9-66.3,35.9-96.9c15.5-34,11.6-63.9-15.9-90.4c-3.3-3.2-6.7-6.2-10-9c16.8-33,34-71.1,49.7-113.6l150,60.5
				C1584.4,3088,1545.5,3221,1545.5,3221z"/>
		</g>
		<g>
			<path class="st1" d="M2559.2,3374.2c-0.9,0-1.9-0.1-2.9-0.2l-240.1-39.6c-98.5,22.8-183.4,19.9-187.1,19.7
				c-4.9-0.2-9.5-2.4-12.6-6.1c-3.2-3.7-4.7-8.6-4.2-13.4c12.7-115,120.2-154.2,161.8-165.1c-4.1-32.2-19.5-114-75.1-202.6
				c-2.8-4.4-3.4-9.8-1.8-14.8c1.6-4.9,5.3-8.9,10.1-10.9l149.9-60.5c4.9-2,10.3-1.6,14.9,0.8c4.6,2.5,7.9,6.9,8.9,12.1
				c25.1,127.7,39,211.1,44.2,243.8c2,0,4-0.1,6-0.1c188.3,0,233.6,178.4,234,180.2c1.4,5.6-0.2,11.6-4,15.9
				c-3.9,4.3-9.6,6.4-15.4,5.6l-81.4-11l10.3,20.5c3,5.9,2.3,13-1.6,18.3C2570,3371.6,2564.7,3374.2,2559.2,3374.2z M2315.7,3298.9
				c1,0,1.9,0.1,2.9,0.2l209.5,34.6l-9.7-19.4c-2.9-5.8-2.4-12.8,1.4-18.1c3.8-5.3,10.2-8.1,16.6-7.2l86.1,11.6
				c-19.4-46-75.2-136.9-210.8-127.3c-9.2,0.6-17.3-5.9-18.6-15c-0.1-0.9-12.4-83.8-42.2-237l-111.1,44.8
				c66.2,114.4,70.8,212.1,71,216.4c0.4,8.9-6.1,16.7-14.9,18.1c-5.2,0.8-120.8,20.1-145.1,118.5c30.9-0.5,93.3-3.7,160.8-19.7
				C2312.9,3299,2314.3,3298.9,2315.7,3298.9z"/>
		</g>
		<g>
			<path class="st1" d="M2518.5,3314.5c-0.5-1.2-1.7-3.4-2.6-5.1c-1-1.8-2.1-3.7-3.2-5.5c-2.2-3.7-4.6-7.3-7.1-10.9
				c-5-7.1-10.6-13.9-16.6-20.2c-12-12.6-25.8-23.4-41.3-31.1c-7.8-3.8-15.9-6.9-24.3-9.1c-8.4-2.2-17.1-3.4-25.9-3.9
				c-17.7-0.7-35.7,2-53.2,7.3l0,0c-3.4,1-7.1-0.9-8.1-4.3c-1-3.2,0.7-6.7,3.7-7.9c18-7.5,37.4-12.4,57.5-13.6
				c10.1-0.4,20.2,0,30.3,1.6c10.1,1.7,20,4.3,29.6,7.9c19.2,7.3,36.7,18.4,52.1,31.7c7.7,6.7,14.9,13.9,21.6,21.6
				c3.3,3.9,6.6,7.8,9.6,12c1.5,2.1,3.1,4.2,4.5,6.3c1.5,2.3,2.8,4.2,4.5,7.1l0.2,0.4c4.9,8.4,2,19.2-6.4,24.1
				c-8.4,4.9-19.2,2-24.1-6.4C2519.1,3315.8,2518.8,3315.1,2518.5,3314.5z"/>
		</g>
		<g>
			<path class="st1" d="M1239.2,3374.2c-5.5,0-10.8-2.6-14.1-7.1c-3.9-5.3-4.5-12.4-1.6-18.3l10.3-20.5l-97.6,13.1
				c-6.3,0.9-12.5-1.8-16.4-6.8c-3.8-5.1-4.6-11.8-2.1-17.6c0.8-1.8,79.2-176.9,278.6-148.8c19.7-25.6,83.8-114.3,132.8-247
				c1.6-4.5,5-8.1,9.4-10c4.3-1.9,9.3-2,13.7-0.2l149.9,60.5c5.6,2.3,9.7,7.3,10.7,13.2c1.1,6-1,12.1-5.5,16.1
				c-83.4,75.2-125.1,171-139.2,208.8c34.3,12.3,104.9,46.6,117.8,124c1.5,9-4.2,17.7-13,19.9c-3.4,0.9-83.5,20.4-191.8-19
				l-238.9,39.4C1241.1,3374.1,1240.2,3374.2,1239.2,3374.2z M1264.3,3288.8c5.6,0,11,2.7,14.3,7.4c3.8,5.3,4.3,12.3,1.4,18.1
				l-9.7,19.4l209.6-34.6c3.1-0.5,6.2-0.2,9.1,0.9c71.8,27,130.1,25.5,157.8,22.3c-22.8-63.9-104.4-84-105.3-84.2
				c-4.7-1.1-8.7-4.1-11.2-8.3c-2.4-4.2-3-9.2-1.7-13.8c1.5-5.3,36.9-123.1,135-222.2l-108-43.6
				c-59.8,153.9-135.2,244.3-138.5,248.2c-4,4.8-10.3,7-16.4,6c-130.7-22.6-203.3,53.3-233.7,97.3l95-12.8
				C1262.8,3288.9,1263.6,3288.8,1264.3,3288.8z"/>
		</g>
		<g>
			<path class="st1" d="M1248.8,3298.3c1.7-2.9,3-4.8,4.5-7.1c1.5-2.2,3-4.3,4.5-6.3c3.1-4.1,6.3-8.1,9.6-12
				c6.7-7.7,13.9-14.9,21.6-21.6c15.4-13.3,33-24.5,52.2-31.7c9.6-3.6,19.5-6.2,29.6-7.9c10.1-1.6,20.3-2,30.3-1.6
				c20.1,1.2,39.5,6.2,57.5,13.6c3.3,1.4,4.9,5.2,3.5,8.5c-1.3,3.1-4.7,4.7-7.9,3.8l-0.1,0c-17.5-5.3-35.5-8-53.2-7.3
				c-8.8,0.6-17.5,1.8-25.9,3.9c-8.4,2.3-16.5,5.3-24.3,9.1c-15.5,7.7-29.3,18.5-41.3,31.1c-6,6.3-11.5,13.1-16.6,20.2
				c-2.5,3.6-4.9,7.2-7.1,10.9c-1.1,1.8-2.2,3.7-3.2,5.5c-1,1.7-2.1,3.9-2.6,5.1c-3.8,8.9-14.2,13.1-23.1,9.2
				c-8.9-3.8-13.1-14.2-9.2-23.1c0.3-0.6,0.6-1.2,0.9-1.8L1248.8,3298.3z"/>
		</g>
		<g>
			<path class="st3" d="M2168.1,2882.1c0,0-34.2,29.5-90.6,63.3c-35.4,21.3-79.7,44.3-129.7,62.7c-101.3,37.5-226.2,56.4-349.6,4.6
				c-135.7-56.9-196.6-154.2-223.2-239.7c-28.6-91.6-17.8-169.5-17.8-169.5l145.6-3.3l345.6-7.8l63.7-1.5l52.8,60.1L2168.1,2882.1z"
				/>
		</g>
		<g>
			<path class="st1" d="M1758.8,3061.8c-58.8,0-115-10.9-167.3-32.9c-151.7-63.7-212.1-176.7-236-260.2
				c-25.8-90.1-16-164.5-15.6-167.6c1.2-8.5,8.4-15,17-15.2l554.8-12.6c5.1-0.3,10.2,2.1,13.6,6l256,291.2c3.1,3.5,4.7,8.1,4.3,12.8
				c-0.3,4.7-2.5,9-6.1,12.1c-3,2.6-75.4,64.4-183.9,112.3C1914.2,3043.7,1834.3,3061.8,1758.8,3061.8z M1373.4,2620.6
				c-1.4,25.1-1.5,79,16.1,139.6c32,110.2,104.5,189.6,215.5,236.2c233.7,98.1,477.7-70.6,537.7-116.6l-238.5-271.2L1373.4,2620.6z"
				/>
		</g>
		<g>
			<path class="st3" d="M3162.4,2423.9c-4.2,8.4-8.6,16.5-13.1,24c-114.8,193.7-303.3,89-303.3,89
				c-60.9,176.2-244.3,217-289.3,224.5c-6.4,1.1-10.1,1.5-10.1,1.5s-81,195.8-276.8,222.2c-33.7,4.5-64.9,3.2-93.5-2.2
				c-37.5-7.1-70.5-21-98.8-37.6c-75.5-44.3-116.5-107.2-116.5-107.2s-148.7,28.6-320,10.7c-77.1-8.1-158.8-25.7-233.6-59.6
				c-10.8-4.9-21.7-10.4-32.4-16.3c-125.3-69.2-240.5-204.8-311.3-353.5c-57.8-121.1-86.2-251-66.8-360.9
				c44.6-253.2,170.4-469.6,173.2-474.5l-0.2,0.1l-0.4,0.2c-1.3,0.8-4.2,2.3-8.4,4.2l-0.3,0.1c-16.5,7.3-52.5,18.5-88.5-0.9
				c-49-26.4-41.5-128.1,37.6-203.4c8-7.6,16.5-14.6,25.3-21c78.4-57.2,181.8-69.4,181.8-69.4c-67.8-41.4-97.9-143.1-97.9-143.1
				l6.2-1.5l118-28.6l-124.3-188.3c248.6-45.2,338.9,60.2,338.9,60.2c7.6-218.4,244.8-372.8,305.1-316.3c60.2,56.5,0,128.1,0,128.1
				c120.5-75.3,425.5-86.6,451.9,0c26.4,86.6-52.7,120.5-52.7,120.5c293.7,60.3,364.7,261,305,327.6
				c-40.5,45.2-107.7,33.3-161.9,3.7c-105.4-57.4-143.1-26.4-143.1-26.4c116.8,180.8-41.4,734.4,233.5,802.2
				c274.9,67.8,267.4-297.5,267.4-297.5c39.3,11.5,71.1,26.2,96.7,43.4c162.9,109,72.1,313.8,35.1,383.1
				c-7.6,14.2-12.9,22.7-13.2,23.5l250.4-186.4c1.9,8.6,3.6,16.9,4.9,25.1c47.8,283.2-208.3,340.1-208.3,340.1l9.1,2.3
				L3162.4,2423.9z"/>
		</g>
		<g>
			<path class="st1" d="M2228.9,3005.4c-154,0-250-113.4-275.8-148c-59.2,9.9-332.6,47.7-552.9-52.2
				c-119.5-54.2-236.4-169.9-320.6-317.5c-85.5-149.9-122-307.5-99.9-432.2c33.9-192.4,114.9-365.3,153.8-440.5
				c-20.2,3-44.7,1.8-69.5-11.6c-21.2-11.4-35-33.5-38.9-62.1c-7.3-54,21.3-120.5,72.7-169.5c55.5-52.9,132.4-77.4,178.3-88
				c-50.2-50-72.7-124.1-73.8-127.8c-1.4-4.6-0.8-9.6,1.6-13.7c2.4-4.2,6.4-7.2,11.1-8.3l100-24.2l-110.5-167.4
				c-3.3-4.9-3.8-11.2-1.5-16.6c2.3-5.4,7.2-9.3,13-10.4c182-33.1,283,12.1,327.5,42.5c21-149,140.9-262.1,226.2-297.3
				c45.7-18.9,83.2-17.8,105.5,3.1c34.5,32.4,36.8,70.4,27.9,101.9c108.1-42,277.8-53.6,367.9-19.8c33.4,12.5,53.9,30.6,60.9,53.7
				c16.5,54.1-2.9,93.3-27.2,117.4c219.2,57.3,277.6,184.9,290.6,224.4c16.1,48.8,10.6,94.9-14.8,123.2c-40.5,45.2-109,48-183.4,7.4
				c-57.1-31.1-91.4-34.1-109-32c37.9,76.3,41.4,195.1,45,320.3c6,205,12.2,416.9,167,455c63.7,15.7,115.9,7.7,155.3-23.7
				c92.8-74.1,90.4-254.5,90.3-256.3c-0.1-5.7,2.5-11.1,7.1-14.4c4.5-3.4,10.5-4.4,15.9-2.6c99.8,32,164.1,85.3,191,158.4
				c31.7,86.1,5.1,180.2-25.2,247.3l187.4-139.5c4.8-3.6,11-4.4,16.6-2.4c5.6,2.1,9.7,6.8,11,12.7c36.9,165.9-24.1,262.3-81.7,313.9
				c-27.1,24.3-55.8,41.1-79.7,52.3l178.7,46.1c5.1,1.3,9.4,4.9,11.6,9.7c2.2,4.8,2.1,10.4-0.3,15.1
				c-37.1,74.3-87.8,121.8-150.5,141.3c-72.2,22.4-140.2,1-171.8-12.1c-70.5,171.9-251.6,210.9-297.1,218.1
				c-19.4,40.9-105.7,199.2-286.5,223.5C2257.3,3004.5,2242.8,3005.4,2228.9,3005.4z M1961,2820.6c5.9,0,11.4,2.9,14.7,8
				c1.1,1.6,109.6,163.6,291.7,139.1c183.2-24.7,262.1-209.7,262.9-211.5c2.5-5.9,8-10.1,14.4-10.7c2.2-0.2,219.6-26,284.7-214.2
				c1.7-4.9,5.5-8.8,10.3-10.7c4.8-1.8,10.3-1.5,14.8,1c0.8,0.4,80.5,43.5,162.9,17.8c47.7-14.8,87.6-49.8,118.8-104l-211.8-54.7
				c-7.9-2-13.3-9.2-13.2-17.3c0.1-8.1,5.8-15.1,13.8-16.9c10-2.3,237.6-56.8,195.3-317.3l-228,169.7c-6.5,4.8-15.4,4.6-21.6-0.5
				c-6.2-5.1-8.2-13.8-4.8-21.1c0.2-0.4,1-1.9,2.4-4.2c24-38.7,99.1-173.5,58.2-284.5c-21-57-70.2-100.5-146.3-129.3
				c-2.7,56.1-18.1,191.6-102.9,259.5c-48.3,38.7-110.8,48.9-185.7,30.5c-180.7-44.6-187.6-280.2-193.7-488.1
				c-3.8-131.2-7.5-255.2-50.3-321.6c-4.8-7.5-3.3-17.4,3.6-23.1c4.8-3.9,50.1-36.8,162.7,24.5c22.1,12.1,97.7,47.7,140.4,0
				c16.9-18.8,19.7-52,7.6-88.7c-25.3-76.6-118.2-172-303.1-210c-7.5-1.5-13.2-7.8-14-15.4c-0.8-7.6,3.5-14.9,10.6-17.9
				c6.5-2.9,63.8-30.3,42.8-99.2c-4.6-15.1-24.1-25.2-39.6-31c-95.7-35.8-297.8-14.5-386.1,40.8c-7.3,4.6-16.9,3.1-22.6-3.4
				c-5.7-6.5-5.7-16.2-0.2-22.8c5-6,47.8-60.4,1.4-103.9c-11.1-10.4-37.2-9-68,3.8c-83,34.3-202.3,150.2-207.5,300.4
				c-0.2,7.2-4.9,13.6-11.8,16c-6.9,2.4-14.4,0.3-19.2-5.2c-0.8-0.9-81.8-89.6-295.9-58.7l109.3,165.6c3.2,4.8,3.8,10.8,1.7,16.1
				c-2.1,5.3-6.7,9.3-12.2,10.6l-105.3,25.5c11.5,29.4,39,88.1,84,115.6c6.4,3.9,9.6,11.4,8,18.8c-1.6,7.3-7.7,12.8-15.1,13.7
				c-1.2,0.1-123.3,15.4-197.1,85.7c-52.9,50.4-66.5,106.6-62.1,139.3c1.6,12.2,6.5,28.2,20.7,35.8c28.8,15.5,58.1,6.9,73.1,0.3
				c0.2-0.1,0.4-0.2,0.5-0.2c3.5-1.5,5.7-2.8,6.3-3.2c0,0,0.5-0.3,0.5-0.3c0.3-0.2,0.6-0.3,0.9-0.5c6.9-3.5,15.5-2,20.8,3.6
				c5.3,5.7,6.4,14.1,2.5,20.8c-5.2,9.1-127.7,222.6-171.1,468.7c-20.6,116.8,14.3,265.7,95.9,408.6
				c79.4,139.3,193.3,252.5,304.6,302.9c232.9,105.5,539.9,48.3,543,47.7C1958.8,2820.7,1959.9,2820.6,1961,2820.6z"/>
		</g>
		<g>
			<path class="st3" d="M1897,2043.6c0,0-308.8,207.1-161.9,557.4c146.9,350.2,583.7,229.7,670.3,94.1c0,0,259.9-109.2,233.5-354
				c0,0-252.3,94.1-380.4-60.3"/>
		</g>
		<g>
			<path class="st1" d="M1902.8,2052.2c-21.6,18.7-42.5,39.8-61.8,61.3c-19.2,21.8-37.2,44.6-53.3,68.6
				c-32.3,47.8-56,101.3-66.6,157.5c-5.4,28.1-7.6,56.7-7,85.2l1,21.4l2.4,21.3c0.6,7.1,2.2,14.2,3.4,21.2
				c1.3,7.1,2.4,14.2,4.3,21.1l5.2,20.9c2,6.9,4.3,13.7,6.5,20.6l3.3,10.3l3.9,10.1l7.8,20.2c11.8,26.1,24.3,52.1,41,75l5.9,8.8
				l6.6,8.3c4.5,5.4,8.6,11.2,13.4,16.4l14.6,15.4c2.3,2.7,5.1,4.9,7.7,7.2l7.9,7c21.4,18.3,44.9,34.2,70.5,46.3
				c25.6,12,52.7,20.9,80.5,26.6c7,1.2,13.9,2.9,21,3.8l21.3,2.6l21.4,1.3c7.1,0.4,14.3,0.2,21.5,0.3c57.3-0.7,115.1-11,168.9-31.6
				c26.9-10.2,52.8-22.8,76.6-38.3c23.7-15.4,45.3-34,60-55.6l0.3-0.4c1.9-2.8,4.6-4.9,7.5-6.1l0,0c7.5-3.3,16-7.6,23.9-11.9
				c8-4.3,15.9-9,23.7-13.7c15.5-9.6,30.5-20.1,44.8-31.4c28.6-22.5,54.6-48.4,75.7-77.5c5.4-7.2,10.2-14.8,15-22.3
				c4.4-7.8,9-15.5,12.8-23.6c7.8-16,14.5-32.7,18.9-49.9l1.8-6.4c0.5-2.2,0.9-4.3,1.4-6.5l2.7-13.1c1.1-8.8,2.8-17.6,3.1-26.5
				c1.7-17.8,0.6-35.7-0.8-53.5l23.1,14.3l0,0c-8.9,3.4-17,6.1-25.5,8.6c-8.5,2.5-16.9,4.8-25.5,6.9c-17.1,4.1-34.4,7.3-51.9,9.7
				c-34.9,4.8-70.5,5.8-106,2c-17.7-2.1-35.3-5.4-52.6-10.1c-17.2-5-34.1-11.4-50.1-19.6c-16-8.2-30.9-18.4-44.7-29.7l-9.9-9
				c-3.3-3-6.2-6.4-9.3-9.6c-6.4-6.2-11.4-13.6-16.9-20.5c-2.7-3.4-2.2-8.4,1.2-11.1c3.2-2.6,7.8-2.3,10.6,0.6l0.4,0.4
				c23.1,23.7,50.1,42.5,80,54.8c15,5.9,30.4,10.9,46.2,14.3c15.8,3.4,32,5.5,48.2,6.6c32.5,2.2,65.4,0,98-4.5
				c16.3-2.3,32.5-5.4,48.6-9.2c8.1-1.8,16.1-3.8,24-5.9c7.8-2.2,16.1-4.5,23.2-6.9l0,0l0.6-0.2c8.7-3.2,18.4,1.4,21.6,10.1
				c0.5,1.4,0.8,2.9,0.9,4.4c1.6,19.8,2.8,39.8,1,59.7c-0.4,10-2.2,19.9-3.5,29.8c-0.9,4.9-2,9.8-3,14.7c-0.5,2.4-1,4.9-1.6,7.3
				l-2,7.2c-5.1,19.4-12.5,38.1-21.3,56c-4.3,9-9.3,17.6-14.3,26.2c-5.4,8.4-10.6,16.8-16.6,24.7c-23.3,32.1-51.5,60.1-82.2,84.3
				c-15.4,12.1-31.4,23.3-48,33.6c-8.4,5.1-16.8,10.1-25.4,14.7c-8.8,4.7-17.1,9-26.9,13.3l0,0l7.8-6.6
				c-18.7,28.2-43.3,49.4-69.4,66.9c-26.3,17.3-54.3,31.2-83.2,42.5c-28.9,11.3-58.8,19.9-89.2,25.8c-30.4,5.9-61.4,9.2-92.5,9.5
				c-7.8-0.1-15.6,0.2-23.3-0.3l-23.3-1.4l-23.3-2.8c-7.8-0.9-15.4-2.7-23.1-4.1c-30.7-6.3-60.8-16-89.4-29.4
				c-28.6-13.5-55.1-31.2-79.1-51.7l-8.9-7.9c-2.9-2.6-6-5.1-8.6-8.1l-16.3-17.1c-5.4-5.8-10-12.2-15-18.2l-7.4-9.2l-6.6-9.8
				c-18.3-25.6-31.9-53.9-44.4-82.3l-8.3-21.7l-4.1-10.8l-3.5-11.1c-2.3-7.4-4.7-14.8-6.8-22.2l-5.5-22.6c-2-7.5-3.2-15.2-4.5-22.9
				c-1.2-7.7-3-15.3-3.6-23.1l-2.5-23.2l-1-23.4c-0.5-31.2,2.1-62.5,8.2-93.1c12-61.4,38.2-119.3,73.1-170.3
				c17.6-25.4,37.6-49.1,59.6-70.6c22.3-21.4,45.7-40.8,73-56.7c4.9-2.9,11.3-1.2,14.2,3.7c2.6,4.4,1.5,9.8-2.2,13L1902.8,2052.2z"
				/>
		</g>
		<g>
			<path class="st1" d="M2414.3,2710.2c-4.3,2.4-7.1,3.7-10.5,5.3c-3.3,1.4-6.6,2.8-9.9,4.1c-6.6,2.5-13.2,4.5-19.8,6.5
				c-6.7,1.6-13.3,3.4-20.1,4.6l-10.1,1.9l-10.1,1.3c-27,3.5-54.1,3.2-80.8,0.6c-6.6-0.8-13.4-1.1-19.9-2.3l-19.8-3.3
				c-6.6-1.1-13-2.8-19.5-4.2c-6.5-1.5-13-2.8-19.3-4.8l-19.1-5.5c-3.2-0.8-6.4-2-9.6-3.2l-9.7-3.6c-6.6-2.2-12.6-5.3-18.9-8.2
				l-9.3-4.4l-8.9-5c-23.7-13.2-45.7-29-65.5-47c-19.9-17.9-38.1-37.6-54.2-58.8c-16-21.3-29.6-44.4-40.6-68.8
				c-10.7-24.4-18.8-50.2-21.7-76.8c-0.5-4.7,2.9-8.9,7.6-9.4c4.1-0.4,7.9,2.2,9.1,6l0,0.1c7.2,23.8,17.3,46.4,29.5,67.8
				c12.2,21.4,26.2,41.8,41.9,60.8c15.8,18.9,33,36.6,51.6,52.5c18.5,16.1,38.9,29.7,60,41.2l7.9,4.3l8.2,3.7
				c5.5,2.4,10.8,5.1,16.5,6.9l8.4,3c2.8,1,5.6,2,8.6,2.8l17.9,5c5.9,1.8,12,3.1,18,4.4c6,1.3,12,2.8,18.1,3.9l18.2,3
				c6.1,1.1,12.2,1.4,18.2,2.2c24.3,2.5,48.8,2.8,72.7,0.3l9-1l8.9-1.5c6-0.8,11.7-2.4,17.5-3.6c5.7-1.6,11.4-3.1,16.9-5
				c2.8-0.9,5.4-2,8-3c2.4-1,5.4-2.3,6.8-3l1.1-0.6c8.6-4.4,19.2-0.9,23.6,7.7C2425.5,2695.4,2422.4,2705.6,2414.3,2710.2z"/>
		</g>
		<g>
			<path class="st1" d="M1044.8,1930.6c-4,21.3-7.2,43.7-9.6,65.7c-2.4,22.1-4,44.3-4.6,66.4c-0.6,22.1-0.1,44.1,1.9,65.7
				c2.1,21.6,5.8,42.9,12.5,62.5c6.6,19.5,16.6,37.2,30.6,48.3c7,5.5,14.9,9.4,23.6,11.6c9.2,2.4,16.8,2.5,24.6,0.4
				c15.3-4.1,29.2-18.6,39.6-35.9c5.3-8.7,9.8-18.1,13.7-27.9c2-4.9,3.8-9.9,5.4-14.9c1.6-4.9,3.2-10.3,4.3-14.8
				c2.3-9.5,11.8-15.3,21.3-13c7.4,1.8,12.6,8.1,13.4,15.3c0.9,8.1,2.3,17.2,3.8,25.7c1.6,8.7,3.4,17.3,5.6,25.9
				c4.2,17.1,9.5,34,16,50c6.5,16.1,14.4,31.4,24,45c9.6,13.5,21,25.3,34.1,33.3c13.1,8.1,27.9,12.3,43.4,12.4
				c15.4,0.3,29-3.8,39.4-12.8c21.2-18,29.7-55.2,29.5-86.9l33.7-7.6c1.2,3.2,3.1,7.4,4.8,11.1c1.8,3.8,3.8,7.6,5.9,11.4
				c4.1,7.5,8.7,14.8,13.7,21.8c9.9,14,21.5,26.8,34.9,37.1c13.3,10.4,28.5,18.2,45,22.1c16.5,4,34,3.8,51.2,0.3l0,0
				c3.4-0.7,6.7,1.5,7.4,4.9c0.6,3.2-1.3,6.3-4.3,7.2c-18.2,5.7-38,8.1-57.6,5.5c-19.6-2.5-38.6-10-55.3-20.4
				c-16.8-10.4-31.5-23.7-44.4-38.4c-6.4-7.3-12.4-15-18-23c-2.8-4-5.5-8.1-8-12.3c-2.6-4.3-4.9-8.2-7.5-13.4l0,0l33.7-7.7
				c0.1,5.9-0.1,10.4-0.4,15.6c-0.3,5-0.8,10-1.5,14.9c-1.4,9.9-3.4,19.8-6.4,29.7c-3,9.8-7,19.6-12.4,29
				c-5.4,9.4-12.4,18.3-21.1,25.8c-8.7,7.5-19.1,13.3-30,16.7c-10.9,3.5-22.1,4.7-32.8,4.5c-21.2-0.2-43.1-6.3-61.3-17.6
				c-18.3-11.2-32.9-26.6-44.5-42.9c-11.6-16.5-20.6-34.1-27.9-52.1c-7.3-18-13-36.3-17.6-54.9c-2.3-9.3-4.3-18.6-6-28
				c-1.7-9.5-3.2-18.6-4.3-28.8l34.6,2.3c-1.6,6.6-3.3,12-5.2,17.9c-1.9,5.7-4,11.4-6.2,17c-4.5,11.2-9.8,22.3-16.3,33
				c-6.5,10.7-14.1,21.1-23.9,30.3c-9.7,9.2-22,17.3-36.3,21.3c-14.1,4.2-30,3.2-42.6-0.2c-13.3-3.2-26.1-9.6-36.9-18.1
				c-10.7-8.6-19.5-19.1-26.2-30.1c-6.8-11-11.8-22.6-15.9-34.3c-8-23.4-11.9-47-14.2-70.5c-2.3-23.5-2.7-46.8-2.1-70
				c0.6-23.2,2.3-46.3,4.8-69.2c2.5-23,5.7-45.6,10.1-68.8c1.8-9.5,11-15.8,20.5-14s15.8,11,14,20.5v0L1044.8,1930.6z"/>
		</g>
		<g>
			<path class="st4" d="M2586.8,1194.2c0.1,23.8-6.7,44.2-19.4,58.5c-40.5,45.2-107.7,33.3-161.9,3.7
				c-105.4-57.4-143.1-26.4-143.1-26.4c-124.2-150.1-297.7-214.5-303-216.5c11.6,6.2,22.6,12.8,32.9,19.7
				c146.9,97.2,178.8,257.9,140.2,403.9c-41.4,156.3-161.9,252.3-267.4,265.5c-105.4,13.2-145-52.7-145-52.7s-39.5,73.5-111.7,71.6
				c-72.2-1.9-112.4-88.5-112.4-88.5s-32.1,247.8-185.4,243.1c-192.1-5.9-140.4-292.1-140.4-292.1l-0.1,0.1l-0.2,0.1l-0.4,0.2
				l-8.4,4.2l-0.3,0.1c-16.5,7.3-52.5,18.5-88.5-0.9c-49-26.4-41.5-128.1,37.6-203.4c79.1-75.3,207.1-90.4,207.1-90.4
				c-67.8-41.4-97.9-143.1-97.9-143.1l6.2-1.5l118-28.6l-124.3-188.3c248.6-45.2,338.9,60.2,338.9,60.2c0.6-19.4,3.2-38.3,7.2-56.5
				c41.1-187.6,242.9-311.4,297.9-259.9c4.9,4.6,9,9.3,12.4,14.1c2.7,3.8,5,7.6,6.9,11.4c10.4,21.4,8.6,43.1,2.9,61
				c-6.2,19.4-16.6,34.3-20.6,39.5c-1,1.3-1.6,2.1-1.6,2.1c0.5-0.3,1.1-0.6,1.6-0.9c2.6-1.6,5.3-3.2,8.1-4.7
				c126.4-70.2,416.5-78.7,442.2,5.7c1.6,5.3,2.8,10.4,3.7,15.3c3.6,20.2,1.1,37.1-4.3,51.1c-14.8,38.1-52.1,54.1-52.1,54.1
				c1.9,0.4,3.8,0.8,5.6,1.2c0.1,0,0.2,0.1,0.2,0.1c217.5,46.5,310.7,170.5,318.1,257.2C2586.6,1187.1,2586.8,1190.7,2586.8,1194.2z
				"/>
		</g>
		<g class="st5">
			<path class="st3" d="M1988.5,1111.1c83.7,79.3,135.3,191.4,141.2,306.5c18.6-56.3,12.2-117.7,0.5-175.8
				c-10.5-52.1-25.7-104.5-56.7-147.7c-42.7-59.7-112.4-96.3-184.3-111.2c-64-13.2-138.5-15.1-202.6-1.7
				c2.5,10.5,45.5,8.9,56.2,10.5c22.1,3.4,44,8.4,65.3,14.9c43.2,13.2,84.4,32.7,122,57.9
				C1950.8,1078.3,1970.4,1093.9,1988.5,1111.1z"/>
		</g>
		<g class="st5">
			<path class="st3" d="M2586.8,1194.2c-3,0.6-6,0.7-9.1,0.5c-27.4-2.2-42.6-31.6-55.9-55.8c-49.1-89.4-138.4-151.7-234.4-186.3
				c-8.8-3.2-19-7.7-20.6-16.9c-0.6-3.8-0.2-6.9,1.1-9.4c0.1,0,0.2,0.1,0.2,0.1c217.5,46.5,310.7,170.5,318.1,257.2
				C2586.6,1187.1,2586.8,1190.7,2586.8,1194.2z"/>
		</g>
		<g class="st5">
			<path class="st3" d="M2314.4,871c-7.7-22.8-26.3-43.1-48.2-54.4c-34.1-17.6-73.9-20-112.2-19.3c-198.6,3.3-255.3,52.3-276,37.1
				c-9.6-7-13.6-18.7-13.2-30.8c2.6-1.6,5.3-3.2,8.1-4.7c126.4-70.2,416.5-78.7,442.2,5.7c1.6,5.3,2.8,10.4,3.7,15.3
				C2322.3,840.1,2319.9,857,2314.4,871z"/>
		</g>
		<g class="st5">
			<path class="st3" d="M1882.4,702c-18.9,4.4-34.3,8.4-38.4,9.7c-77.7,23.9-149.1,67.7-205.7,126.1c-14.2,14.6-27.5,30.2-39.7,46.7
				c-11.2,15.2-19.9,38.7-33,51.6c-0.1,0.1-0.2,0.2-0.2,0.2c41.1-187.6,242.9-311.4,297.9-259.9c4.9,4.6,9,9.3,12.4,14.1
				C1878.3,694.4,1880.6,698.2,1882.4,702z"/>
		</g>
		<g class="st0">
			<ellipse class="st1" cx="1844.7" cy="1305.7" rx="92.1" ry="143.3"/>
		</g>
		<g class="st0">
			<path class="st1" d="M2567.4,1252.7c-40.5,45.2-107.7,33.3-161.9,3.7c-105.4-57.4-143.1-26.4-143.1-26.4
				c-124.2-150.1-297.7-214.5-303-216.5c11.6,6.2,22.6,12.8,32.9,19.7c-102.3-43-214.8-61.9-325.5-54.1
				c-67.3-133.8,156.8-184,208.9-288.6c38.4,53.6-12.4,113.9-12.4,113.9c3.1-1.9,6.3-3.9,9.7-5.7c-12,21.1-23.7,43.4-14.7,64.7
				c12.2,29,51.8,31.2,83.2,28.6c58.2-4.7,116.5-9.3,174.8-14c45.8-3.6,92.1-7.4,135.7-22.3c24-8.2,47.2-20.2,66.9-36.1
				c13.2,75.3-56.4,105.2-56.4,105.2c2,0.4,3.9,0.8,5.9,1.2c-10.1,4.7-20,9.7-28.9,16.3c-15.3,11.5-27.7,29.8-25,48.7
				c4.6,32.7,44.8,43.8,76.3,53.8c43,13.6,82.4,38.6,113,71.6c27.3,29.4,49.7,66.4,86.9,81.3c31.4,12.6,68.2,5.4,95.8-14.5
				C2588.8,1211.9,2582,1236.4,2567.4,1252.7z"/>
		</g>
		<g>
			<path class="st1" d="M1315,1893.8c-1.7,0-3.3,0-5-0.1c-48.9-1.5-87.8-19.7-115.7-54.1c-53.6-66.1-50.7-174.9-45.5-228
				c-22.2,6.1-53.3,8.7-84.9-8.3c-21.2-11.4-35-33.5-38.9-62.1c-7.3-54,21.3-120.5,72.7-169.5c55.5-52.9,132.4-77.4,178.3-88
				c-50.2-50-72.7-124.1-73.8-127.8c-1.4-4.6-0.8-9.6,1.6-13.7c2.4-4.2,6.4-7.2,11.1-8.3l100-24.2l-110.5-167.4
				c-3.3-4.9-3.8-11.2-1.5-16.6c2.3-5.4,7.2-9.3,13-10.4c182-33.1,283,12.1,327.5,42.5c21-149,140.9-262.1,226.2-297.3
				c45.7-18.9,83.2-17.8,105.5,3.1c34.5,32.4,36.8,70.4,27.9,101.9c108.1-42,277.8-53.6,367.9-19.8c33.4,12.5,53.9,30.6,60.9,53.7
				c16.5,54.1-2.9,93.3-27.2,117.4c219.2,57.3,277.6,184.9,290.6,224.4c16.1,48.8,10.6,94.9-14.8,123.2l0,0
				c-40.5,45.2-109.1,48-183.4,7.5c-86-46.8-120.3-30-123.8-27.9c-3.5,3.2-7.6,4.5-12.4,4.2c-4.9-0.3-8.9-3.1-12.1-6.9
				c-48.4-58.4-104.6-103.6-154.9-136.9c21.1,27.9,37.8,58.7,49.7,91.9c26.6,74.7,28.6,159.5,5.8,245.5
				c-45.8,172.8-178.4,265.5-282.2,278.4c-77.6,9.7-123.3-19.8-145.5-41.2c-19,24.5-57.3,61.8-113.8,60.2
				c-47.3-1.2-81.8-32.4-103-59.4C1487.1,1753.9,1437.5,1893.8,1315,1893.8z M1170.2,1566.6c2.8,0,5.7,0.7,8.3,2.1
				c6.7,3.6,10.4,11.1,9,18.6c-0.3,1.5-27,154.9,34.2,230.4c21.4,26.4,50.7,39.8,89.4,41c135.4,4.1,167.1-225.5,167.4-227.8
				c1-7.8,7-13.9,14.8-15.1c7.7-1.2,15.3,2.9,18.6,10c0.3,0.7,36.6,76.8,96.9,78.3c0.7,0,1.5,0,2.2,0c58.9,0,93.3-61.8,93.6-62.4
				c3-5.5,8.8-9,15.1-9.2c6.5-0.1,12.2,3.1,15.4,8.5c1.4,2.2,35.9,55.8,127.7,44.3c92.5-11.6,210.9-95.5,252.6-252.6
				c45.8-172.7-15.7-323.6-164.4-403.6c-8.1-4.4-11.5-14.3-7.7-22.7c3.8-8.4,13.4-12.5,22.1-9.3c7.3,2.7,176.4,66.4,301.7,211.4
				c22-7.2,67.9-10.4,146.8,32.5c22.1,12.1,97.7,47.7,140.4,0c0,0,0,0,0,0c16.9-18.8,19.7-52,7.6-88.7
				c-25.3-76.6-118.2-172-303.1-210c-7.5-1.5-13.2-7.8-14-15.4c-0.8-7.6,3.5-14.9,10.6-17.9c6.5-2.9,63.8-30.3,42.8-99.2
				c-4.6-15.1-24.1-25.2-39.6-31c-95.7-35.8-297.8-14.5-386.1,40.8c-7.3,4.6-16.9,3.1-22.6-3.4c-5.7-6.5-5.7-16.2-0.2-22.8
				c5-6,47.8-60.4,1.4-103.9c-11.1-10.4-37.2-9-68,3.8c-83,34.3-202.3,150.2-207.5,300.4c-0.2,7.2-4.9,13.6-11.8,16
				c-6.9,2.4-14.4,0.3-19.2-5.2c-0.7-0.9-81.8-89.6-295.9-58.7l109.3,165.6c3.2,4.8,3.8,10.8,1.7,16.1c-2.1,5.3-6.7,9.3-12.2,10.6
				l-105.3,25.5c11.5,29.4,39,88.1,84,115.6c6.4,3.9,9.6,11.4,8,18.8c-1.6,7.3-7.7,12.8-15.1,13.7c-1.2,0.1-123.3,15.4-197.1,85.7
				c-52.9,50.4-66.5,106.6-62.1,139.3c1.6,12.2,6.5,28.2,20.7,35.8c28.8,15.5,58.1,6.9,73.1,0.3c0,0,0.1,0,0.1,0l7.5-3.7
				c0.3-0.2,0.6-0.3,0.8-0.4C1164.6,1567.2,1167.4,1566.6,1170.2,1566.6z"/>
		</g>
		<g>
			<path class="st1" d="M1952.9,1026.8c-4.8-2.3-10.4-4.7-15.9-6.9c-5.5-2.3-11.1-4.2-16.7-6.3c-11.3-3.9-22.8-7.5-34.4-10.6
				c-23.2-6.3-46.9-11-70.8-13.8l-9-1.1l-9-0.7c-6-0.4-12-1-18-1.3c-12-0.2-24.1-0.9-36.2-0.2c-24.2,0.3-48.1,3.6-72,7.6l-0.4,0.1
				c-4.5,0.7-8.8-2.3-9.5-6.8c-0.7-4.4,2.2-8.6,6.5-9.5c24.5-5.2,49.4-9.7,74.5-11.1c12.5-1.2,25.1-1.1,37.7-1.4
				c6.3,0,12.6,0.4,18.9,0.6l9.4,0.4l9.4,0.8c25.1,1.9,50.1,5.7,74.8,11.2c12.3,2.8,24.6,6,36.7,9.6c12.3,3.8,23.9,7.7,36.5,13
				c7.5,3.2,10.9,11.8,7.8,19.2c-3.2,7.5-11.8,10.9-19.2,7.8c-0.2-0.1-0.3-0.1-0.5-0.2L1952.9,1026.8z"/>
		</g>
		<g>
			<path class="st1" d="M1479.2,1638.3c-2-7.9-3.4-15-4.7-22.5c-1.3-7.4-2.5-14.8-3.4-22.2c-1.9-14.9-3.2-29.8-3.4-44.8
				c-0.2-15,0.4-30.2,2.6-45.2c2.3-15.1,6-30,12.1-44.3c1.9-4.4,6.9-6.4,11.3-4.6c4.1,1.7,6.1,6.3,4.9,10.4l-0.1,0.4
				c-4,12.9-5.9,26.4-6.6,40.1c-0.5,13.7,0.4,27.6,2,41.4c1.7,13.8,4.3,27.6,7.5,41.1c1.6,6.8,3.4,13.6,5.3,20.2
				c1.9,6.6,4.1,13.5,6.2,19.5l0.1,0.2c3.3,9.1-1.4,19.2-10.5,22.6s-19.2-1.4-22.6-10.5C1479.5,1639.5,1479.3,1638.9,1479.2,1638.3z
				"/>
		</g>
		<g>
			<path class="st1" d="M1152.8,1581c0.8-3.3,1.4-5.8,2.2-8.5c0.8-2.7,1.6-5.3,2.4-7.9c1.6-5.3,3.5-10.3,5.3-15.5
				c3.8-10.1,7.9-20.1,12.4-29.9c9-19.6,19.2-38.5,30.9-56.4c11.6-17.9,24.3-35.2,38.4-51.1c13.7-16.3,29.3-30.9,45-44.9
				c3-2.6,7.5-2.4,10.1,0.6c2.5,2.8,2.4,7-0.1,9.7l-0.2,0.3c-14.1,14.8-27.7,30-39.5,46.6c-12.2,16.3-22.8,33.7-32.3,51.5
				c-9.6,17.8-17.7,36.3-24.6,55.2c-3.5,9.4-6.4,19-9.2,28.6c-1.2,4.8-2.6,9.6-3.6,14.4c-0.6,2.4-1.1,4.8-1.5,7.2
				c-0.5,2.3-0.9,4.9-1.2,6.7l0,0.2c-1.4,9.6-10.3,16.3-19.9,14.9c-9.6-1.4-16.3-10.3-14.9-19.9
				C1152.6,1582,1152.7,1581.5,1152.8,1581z"/>
		</g>
		<g>
			<path class="st1" d="M2828.8,2533.7c4.7-16.1,9.3-32.4,13.7-48.6c4.4-16.3,8.6-32.6,12.2-48.9l0-0.1c0.8-3.9,4.6-6.3,8.5-5.5
				c3.4,0.7,5.7,3.7,5.6,7c-0.1,17.2-1,34.3-2,51.3c-1,17.1-2.2,34-3.5,51.1c-0.8,9.7-9.3,17-19,16.2c-9.7-0.8-17-9.3-16.2-19
				c0.1-1.2,0.3-2.4,0.6-3.5L2828.8,2533.7z"/>
		</g>
		<g>
			<path class="st2" d="M1610.8,1216.3c-6.5,15.5-15.9,29.5-27.5,41.9c-62,66-186.9,84.5-266.2,35.9
				c-67.8-41.4-97.9-143.1-97.9-143.1l6.2-1.5l118-28.6l-124.3-188.3c22.6-4.1,43.8-7,63.8-8.7c200.4-18.2,275.1,69,275.1,69
				S1662.3,1093.3,1610.8,1216.3z"/>
		</g>
		<g class="st0">
			<path class="st1" d="M1585,1254.1c-0.6,1.4-1.2,2.8-1.8,4.2c-62,66-186.9,84.5-266.2,35.9c-67.8-41.4-97.9-143.1-97.9-143.1
				l6.2-1.5l118-28.6l-124.3-188.3c22.6-4.1,43.8-7,63.8-8.7c14.8,3.8,29.1,8.2,41.8,12.4c27.3,9,53.8,20.7,78.7,34.9
				c67.5,38.5,124.1,95.8,161.8,163.8C1585.5,1171.3,1600.5,1215.4,1585,1254.1z"/>
		</g>
		<g class="st5">
			<path class="st3" d="M1610.8,1216.3c-0.7,1.7-1.5,3.3-2.2,5c12.9-100.4-65.6-176.1-65.6-176.1s-79.3-92.6-293.8-67l-30.1-45.6
				c248.6-45.2,338.9,60.2,338.9,60.2S1662.3,1093.3,1610.8,1216.3z"/>
		</g>
		<g>
			<path class="st1" d="M1422.6,1339.1c-42.1,0-82.5-10.2-114.8-30c-72.7-44.4-104.2-148.7-105.6-153.1c-1.4-4.6-0.8-9.6,1.6-13.7
				c2.4-4.2,6.4-7.2,11.1-8.3l100-24.2l-110.5-167.4c-3.3-4.9-3.8-11.2-1.5-16.6c2.3-5.4,7.2-9.3,13-10.4
				c247.9-45.1,345.5,55.1,354.8,65.4c9.4,9.3,110.3,113.1,56.2,242.4l0,0c-19.5,46.6-64.2,84.2-122.8,103.1
				C1477.5,1334.8,1449.8,1339.1,1422.6,1339.1z M1242.2,1163.5c11.5,29.4,39,88.1,84,115.6c44.6,27.3,108.6,32.5,167.2,13.6
				c48.8-15.8,85.6-46.1,101.2-83.2c0,0,0,0,0,0c46.1-110.2-44.8-200.3-48.7-204.1c-0.4-0.4-0.8-0.8-1.1-1.2
				c-0.8-0.9-81.8-89.6-295.9-58.7l109.3,165.6c3.2,4.8,3.8,10.8,1.7,16.1c-2.1,5.3-6.7,9.3-12.2,10.6L1242.2,1163.5z"/>
		</g>
		<g>
			<path class="st1" d="M1436.8,1245.1c-54.5,0-132.7-16.5-218.8-86.5c-3.5-2.8-5-7.3-4-11.7c1-4.3,4.3-7.8,8.7-8.8l101.8-24.7
				l-115.1-174.4c-2.6-3.9-2.6-9,0-12.9c2.6-3.9,7.3-5.9,11.9-5.1c2.7,0.5,66,12.5,135,55.1c64.1,39.5,144.8,113.8,165.6,243.3
				c0.9,5.3-2,10.5-7,12.6C1512.4,1233.2,1483.1,1245.1,1436.8,1245.1z M1251.9,1155.1c118.5,86.5,216.1,67.2,245.3,58.4
				c-33.3-175.9-186.7-241.6-251.3-261.7l107.4,162.7c2.1,3.2,2.5,7.2,1.1,10.7c-1.4,3.6-4.4,6.2-8.1,7.1L1251.9,1155.1z"/>
		</g>
		<g>
			<path class="st1" d="M1510.4,1221.3c0,0-129.4,54.7-285-71.8l118-28.6l-124.3-188.3C1219.2,932.6,1471.5,979.1,1510.4,1221.3z"/>
		</g>
		<g>
			<path class="st6" d="M1244.6,1411.3c-3.7,9.4-8.6,18.9-14.4,27.7C1234.5,1429.5,1239.3,1420.2,1244.6,1411.3z"/>
		</g>
		<g>
			<path class="st6" d="M1409.6,2166.2c3.8,4,6.4,8.6,7.8,13.4C1414.7,2175.1,1412.1,2170.7,1409.6,2166.2z"/>
		</g>
		<g class="st0">
			<path class="st1" d="M2928.9,2363.6l9.1,2.3c-51.3,5.9-103.2,5.7-154.4-0.7c83.5-40.8,162.2-92.8,226.9-159.5
				c26.4-27.1,50.3-56.7,71.1-88.4c19-29,30.8-65.4,53.5-91.6c0.7-0.8,1.3-1.5,2.1-2.3C3185,2306.8,2928.9,2363.6,2928.9,2363.6z"/>
		</g>
		<g class="st0">
			<path class="st1" d="M2895.1,2161.2c-6,4.9-12.4,9.5-18.9,13.9c-70.6,46.6-172.2,50.1-236.3-5c70.9-9,139.9-39.2,190-90.1
				c50.1-50.8,80-122.8,74.1-194c-3.6-44.2-21.3-76-44.1-107.8C3022.8,1887.2,2932,2092,2895.1,2161.2z"/>
		</g>
		<g>
			<path class="st6" d="M1885.4,763c-6.2,19.4-16.6,34.3-20.6,39.5c0.5-9,3.5-18,8.4-25.4C1876.5,772.1,1880.7,767.4,1885.4,763z"/>
		</g>
		<g class="st0">
			<path class="st1" d="M2899.5,2419.2c-30.1,42.5-72.4,76-120.1,96.8c-0.2,0.1-0.4,0.2-0.6,0.3c-29.5,12.7-62.7-7-67.3-38.8
				c-7-48.3-21.4-97.9-40.2-145.8c-70.4,115.6-189.2,200.7-321.3,230.2c-132.1,29.5-275.7,3.1-388.7-71.5
				c41.7,67.9,95.1,128.5,157.2,178.3c-40.3,0.6-80.2-5.6-118.4-17.8c-41.5-13.1-81-33.2-116.5-58.6
				c-82.5-59.1-150-215.7-94.3-385.4c36.3-63.2,83.8-119.9,139.8-166.4c-87.3,21.9-146.3-4.4-235.4-82.8
				c28.5,44.9,57.7,91.5,66.1,144.1c8.3,52.5-9.7,113.2-56.4,138.8c-13.4,7.3-28.1,11.2-43.1,12.2
				c-99.3-9.8-200.1-114.3-242.8-236.9c8.2,27.8,35.1,248.7-27.1,239.3c-75.6-11.5-125-307.1-125-307.1s183.2,115.5,314.6-134.9
				c63.4,62.9,167.6,25.1,184.7-61.8c142.9,152.8,298.9,58.2,384-69.4c85.1-127.6,97-388.6,1.1-508.3
				c-9.1,108.7-37.8,222.3-116.1,298.2c-78.2,76-217.2,96.5-294.3,19.5c-19.3,47.3-68.5,80.7-119.6,81.1
				c-51,0.5-74.3-63.4-94.4-110.3c-68.2,74-66,147.9-85.4,204.6c-19.7,57.9-70.3,96.4-125.4,69.7c-36-17.5-56.5-56.6-66.7-95.3
				c-17.7-66.8-11.1-139.5,17.4-202.4c-13.6,20.7-32.7,37-56.6,36.4c-41.3-1-63.2-55.5-48.2-94c2.6-6.6,5.9-12.5,9.8-17.9
				c-8.8,6.4-17.3,13.4-25.3,21c-79.1,75.3-86.6,177-37.6,203.4c36,19.4,71.9,8.2,88.5,0.9l0.3-0.1c4.3-1.9,7.1-3.5,8.4-4.2l0.4-0.2
				l0.2-0.1c-2.8,4.9-128.5,221.3-173.2,474.5c-19.4,109.8,9,239.7,66.8,360.9c70.1,121.9,126,182.7,222.6,292.3
				c128.4,145.7,258.8,185.9,349,199.9c119.3,18.5,218.5,64,111.2,132.6c171.2,0.2,295.6-77.6,331-98.9
				c28.2,16.5,61.3,30.5,98.8,37.6c261.7-7.9,302.2-129.1,370.3-220c3.9-1.6,7.6-3.4,11.2-5.2c-0.4,1.2-0.8,2.5-1.2,3.7
				c45-7.4,228.4-48.3,289.3-224.5c0,0,188.5,104.6,303.3-89C3091.6,2481.4,2982.9,2472.7,2899.5,2419.2z M1169.5,2196.1
				c-26,0-47-71.6-47-160c0-88.3,21-159.9,47-159.9s47.1,71.6,47.1,159.9C1216.6,2124.5,1195.6,2196.1,1169.5,2196.1z
				 M1732.9,2650.6c-3.1,2.3-7.4-0.2-10.4-2.6c-38.3-30.9-71.7-67.6-99-108.4c-12-18-31.3-42.6-36.2-64c-6-26.4,17-19.4,32.9-6.4
				c53.6,44.3,93.7,104.6,114,171.2C1735.2,2643.9,1735.9,2648.5,1732.9,2650.6z M1375.1,2656.6c-43.2-35.7-78.6-83.3-90.6-138.1
				c-6-27.4-3.9-60.7,19-76.9c29.5-20.7,73-0.2,91.4,26.5c14.3,20.6,12.7,46.6,17.9,70.4c8.3,38,22.6,75,41,109.2
				c13,24.4,40.1,80.8,66.6,92.6C1469.2,2717.5,1418.3,2692.3,1375.1,2656.6z M1615.2,2742.4c-53-32.6-97.2-81.7-116.8-140.8
				c-7.1-21.4-25.7-140.4,15.1-127.9c26.4,8.1,50.9,100.4,65.1,124.3c50.6,85.2,124.6,156.6,212.7,202
				C1729.5,2792.2,1668.1,2775,1615.2,2742.4z M2529.9,2802.2c-29.1,37.9-65.7,58.7-81.8,46.3c-16.1-12.4-5.5-53.1,23.6-91.1
				c29.1-37.9,65.8-58.7,81.8-46.3C2569.6,2723.5,2559.1,2764.2,2529.9,2802.2z"/>
		</g>
		<g>
			<g>
				<g>
					<g>
						<path class="st1" d="M1828.6,1141.9c50.5-3.7,91.6,56.3,91.8,134.1c0.2,77.8-40.6,143.9-91.1,147.6
							c-50.5,3.7-91.6-56.3-91.8-134.1C1737.3,1211.7,1778.1,1145.6,1828.6,1141.9z"/>
					</g>
				</g>
			</g>
			<g>
				<g>
					<g>
						<path class="st3" d="M1829.3,1174.5c15.3,7.6,19.9,34.3,10.2,59.5c-9.7,25.2-30,39.4-45.3,31.8c-15.3-7.6-19.9-34.3-10.2-59.5
							C1793.7,1181.1,1813.9,1166.8,1829.3,1174.5z"/>
					</g>
				</g>
			</g>
			<g>
				<g>
					<g>
						<path class="st7" d="M1868.4,1343c7,6.2,6.7,20.8-0.8,32.6c-7.5,11.8-19.2,16.3-26.2,10.1c-7-6.2-6.7-20.8,0.8-32.6
							C1849.6,1341.3,1861.3,1336.8,1868.4,1343z"/>
					</g>
				</g>
			</g>
		</g>
	</g>
</g>
</svg>
